<svg xmlns="http://www.w3.org/2000/svg" viewBox="0 0 48 60" x="0px" y="0px"><title>Circuit Component circuit electronic PCB_2</title><g><circle cx="24" cy="30" r="1"/><circle cx="24" cy="18" r="1"/><path d="M41,36.28a20.85,20.85,0,0,0,0-24.56Z"/><circle cx="34" cy="18" r="1"/><path d="M39,9.33a20.88,20.88,0,0,0-4-3.18v9a3,3,0,1,1-2,0V5.06a20.89,20.89,0,0,0-8-2V15.18a3,3,0,1,1-2,0V3.05a20.56,20.56,0,0,0-6,1.18V17a1,1,0,0,1-.45.83L12.9,20.27A3,3,0,1,1,10,18a3,3,0,0,1,1.79.61L15,16.46V5.06a20.94,20.94,0,0,0-2,36.79V27a1,1,0,0,1,.4-.8l1.75-1.31A2.91,2.91,0,0,1,15,24a3,3,0,1,1,3,3,3.06,3.06,0,0,1-1.66-.5L15,27.5V42.94a20.89,20.89,0,0,0,8,2V32.82a3,3,0,1,1,2,0V45a20.89,20.89,0,0,0,8-2V27.5l-1.34-1A3.06,3.06,0,0,1,30,27a3,3,0,1,1,3-3,2.91,2.91,0,0,1-.15.89L34.6,26.2a1,1,0,0,1,.4.8V41.85a20.88,20.88,0,0,0,4-3.18Z"/><circle cx="18" cy="24" r="1"/><circle cx="10" cy="21" r="1"/><circle cx="30" cy="24" r="1"/></g><text x="0" y="63" fill="#000000" font-size="5px" font-weight="bold" font-family="'Helvetica Neue', Helvetica, Arial-Unicode, Arial, Sans-serif">Created by Hai Studio</text><text x="0" y="68" fill="#000000" font-size="5px" font-weight="bold" font-family="'Helvetica Neue', Helvetica, Arial-Unicode, Arial, Sans-serif">from the Noun Project</text></svg>